<?xml version="1.0" standalone="no"?>
<!DOCTYPE svg PUBLIC "-//W3C//DTD SVG 20010904//EN"
 "http://www.w3.org/TR/2001/REC-SVG-20010904/DTD/svg10.dtd">
<svg version="1.0" xmlns="http://www.w3.org/2000/svg"
 width="512.000000pt" height="512.000000pt" viewBox="0 0 512.000000 512.000000"
 preserveAspectRatio="xMidYMid meet">
<g transform="translate(0.000000,512.000000) scale(0.100000,-0.100000)"
fill="#000000" stroke="none">
<path d="M3023 4394 c-21 -30 -46 -56 -87 -88 -38 -30 -31 -69 17 -92 18 -9
43 -33 55 -55 33 -57 71 -54 107 7 10 18 33 39 51 48 49 23 56 62 18 92 -31
24 -49 42 -89 87 -30 34 -49 34 -72 1z"/>
<path d="M789 4343 c-27 -31 -30 -41 -18 -67 13 -28 13 -28 113 -51 38 -8 88
-24 111 -34 94 -42 160 -134 171 -239 l5 -47 -108 -121 c-477 -536 -483 -544
-483 -649 0 -59 25 -129 351 -986 193 -508 359 -943 369 -966 29 -66 65 -107
122 -139 46 -25 63 -29 128 -28 71 0 91 6 364 112 l290 112 280 -279 c178
-176 298 -287 326 -302 64 -33 176 -33 240 0 31 16 254 232 717 694 556 556
676 681 694 722 30 68 31 163 1 225 -31 64 -1889 1921 -1947 1946 -85 36 -142
26 -475 -78 -456 -144 -539 -168 -576 -168 -50 0 -62 -25 -52 -107 9 -78 31
-149 56 -179 39 -46 68 -57 166 -58 83 -1 97 -4 134 -29 68 -44 102 -132 82
-209 -24 -89 -98 -147 -189 -148 -83 0 -168 61 -187 134 l-7 29 39 -8 c158
-30 213 -20 214 41 0 36 -32 53 -114 64 -97 12 -153 37 -205 90 -51 53 -76
120 -101 273 -21 133 -38 189 -75 253 -62 105 -205 186 -370 208 -42 6 -53 4
-66 -11z m329 -725 c-134 -433 -259 -842 -265 -871 -8 -35 -11 -28 -81 156
-74 196 -84 249 -59 294 16 29 412 483 422 483 1 0 -6 -28 -17 -62z m1808
-443 c14 -22 0 -75 -201 -767 -119 -408 -221 -755 -227 -771 -18 -47 -84 -51
-105 -6 -11 23 -6 48 41 210 30 101 125 427 211 724 86 297 163 559 172 583
22 63 77 76 109 27z m-568 -244 c86 -44 142 -137 142 -234 -1 -138 -113 -247
-255 -247 -100 1 -182 49 -228 135 -29 53 -30 174 -3 225 35 67 95 118 166
141 38 13 136 2 178 -20z m-262 -1602 c-44 -26 -523 -199 -549 -199 -43 0 -98
31 -119 67 -19 32 -508 1312 -508 1328 1 6 268 -260 594 -590 352 -356 589
-603 582 -606z m1066 1045 c103 -35 171 -134 171 -246 -2 -220 -276 -332 -432
-177 -63 62 -92 161 -71 239 39 150 189 233 332 184z"/>
<path d="M2190 2822 c-131 -65 -89 -252 57 -252 50 0 82 18 111 60 45 66 18
156 -60 196 -36 19 -66 18 -108 -4z"/>
<path d="M3024 2256 c-68 -30 -97 -103 -69 -174 22 -53 67 -82 129 -82 87 0
150 90 121 174 -17 47 -33 66 -72 83 -40 16 -69 16 -109 -1z"/>
<path d="M3682 4094 c-13 -9 -37 -40 -54 -70 -22 -40 -42 -60 -72 -76 -119
-59 -115 -118 11 -182 19 -9 44 -36 59 -64 38 -66 54 -82 80 -82 40 0 53 11
86 71 27 49 42 64 91 90 100 53 100 105 -2 161 -44 24 -64 43 -76 69 -36 79
-83 111 -123 83z"/>
</g>
</svg>
