<svg xmlns="http://www.w3.org/2000/svg" width="300" height="200" viewBox="0 0 300 200">
  <!-- Background -->
  <rect width="300" height="200" fill="#FAF8F3"/>
  
  <!-- Plate -->
  <ellipse cx="150" cy="130" rx="110" ry="45" fill="#f8f8f8" stroke="#ddd" stroke-width="2"/>
  
  <!-- Lettuce leaves -->
  <path d="M80 100 Q100 85 120 100 Q110 115 90 110 Q75 105 80 100" fill="#7ED321"/>
  <path d="M110 95 Q130 80 150 95 Q140 110 120 105 Q105 100 110 95" fill="#7ED321"/>
  <path d="M140 100 Q160 85 180 100 Q170 115 150 110 Q135 105 140 100" fill="#7ED321"/>
  <path d="M170 95 Q190 80 210 95 Q200 110 180 105 Q165 100 170 95" fill="#7ED321"/>
  
  <!-- Chicken pieces -->
  <ellipse cx="120" cy="115" rx="15" ry="8" fill="#DEB887"/>
  <ellipse cx="160" cy="120" rx="12" ry="6" fill="#DEB887"/>
  <ellipse cx="190" cy="110" rx="10" ry="5" fill="#DEB887"/>
  
  <!-- Croutons -->
  <rect x="105" y="125" width="8" height="8" fill="#D4A574"/>
  <rect x="145" y="130" width="6" height="6" fill="#D4A574"/>
  <rect x="175" y="125" width="7" height="7" fill="#D4A574"/>
  
  <!-- Parmesan shavings -->
  <path d="M130 105 Q135 100 140 105 Q135 110 130 105" fill="#FFD700" opacity="0.7"/>
  <path d="M165 115 Q170 110 175 115 Q170 120 165 115" fill="#FFD700" opacity="0.7"/>
  
  <!-- Text -->
  <text x="150" y="180" text-anchor="middle" font-family="Arial, sans-serif" font-size="16" font-weight="bold" fill="#2C2C2C">Ensalada César</text>
</svg>
